<svg xmlns="http://www.w3.org/2000/svg" width="10.049" height="10px" viewBox="0 0 87.049 88">
  <g id="noun-handshake-2698031" transform="translate(-93.582 -20.782)">
    <path id="Path_95" data-name="Path 95" d="M164.736,418.494a5.423,5.423,0,0,1-3.864-1.585,5.485,5.485,0,0,1-1.462-2.679l-1.126,1.083a5.361,5.361,0,0,1-3.8,1.575,5.72,5.72,0,0,1-3.876-1.549c-.027-.025-.052-.05-.076-.077a5.7,5.7,0,0,1-1.341-2.5l-.128.127a5.461,5.461,0,0,1-9.173-2.581l-.74.715a5.464,5.464,0,0,1-7.719-7.735l9.242-9.107a1.3,1.3,0,0,1,1.831.007l10.573,10.573.014.015,4.246,4.379a3.334,3.334,0,0,0,2.152.816,2.7,2.7,0,0,0,.924-.158,1.3,1.3,0,0,1,.3-.146,2.68,2.68,0,0,0,.7-.489,3.034,3.034,0,0,0,.061-4.13,1.3,1.3,0,0,1,1.911-1.758l4.283,4.283a2.779,2.779,0,0,0,1.975.824,3.118,3.118,0,0,0,2.072-.823,2.861,2.861,0,0,0,0-3.918,1.3,1.3,0,0,1,1.838-1.838l3.346,3.346a3.871,3.871,0,0,0,.469.428,1.3,1.3,0,0,1,.34,2.072l-9.1,9.234a5.421,5.421,0,0,1-3.869,1.592Zm-2.657-6.6a2.951,2.951,0,0,0,.631,3.177,2.9,2.9,0,0,0,4.051,0l4.163-4.224a5.515,5.515,0,0,1-1.287.152,5.362,5.362,0,0,1-3.813-1.585l-1.1-1.1a5.452,5.452,0,0,1-1.481,2.7,5.615,5.615,0,0,1-1.167.873Zm-9.671,1.573a3.118,3.118,0,0,0,2.073.823,2.776,2.776,0,0,0,1.975-.824l.018-.018,1.212-1.166a6,6,0,0,1-2.112-1.209c-.024-.021-.047-.044-.07-.066l-2.844-2.933a1.3,1.3,0,0,1-.256,1.475,2.862,2.862,0,0,0,0,3.919Zm-10.157-8.545a1.3,1.3,0,0,1,.919,2.219,2.739,2.739,0,0,0,0,3.917,2.9,2.9,0,0,0,4.051,0l3.346-3.346a1.3,1.3,0,0,1,1.51-.239l-.849-.875-9.653-9.653-8.315,8.195a2.865,2.865,0,0,0,4.058,4.045l.016-.015,4.015-3.881a1.291,1.291,0,0,1,.9-.366Z" transform="translate(-30.106 -309.713)" fill="#BC9C6F"/>
    <path id="Path_96" data-name="Path 96" d="M182.962,260.718a5.423,5.423,0,0,1-3.864-1.585l-.014-.015-4.276-4.41-14.58-14.58a1.311,1.311,0,0,1-.331-.562l-1.606-5.621a1.3,1.3,0,0,1,.331-1.276l13.25-13.25a1.3,1.3,0,0,1,1.838,0,1.613,1.613,0,0,0,.563.355,1.34,1.34,0,0,1,.217.095,7.18,7.18,0,0,0,3.534.778,34.2,34.2,0,0,0,8.394-1.6c.618-.17,1.231-.338,1.835-.5a1.3,1.3,0,0,1,1.25.338L212.915,242.3l3.336,3.2.019.019a5.464,5.464,0,0,1-7.719,7.735l-.733-.709a5.485,5.485,0,0,1-9.18,2.574l-.128-.128a5.691,5.691,0,0,1-1.341,2.5c-.025.027-.05.052-.076.077a5.716,5.716,0,0,1-3.876,1.549,5.362,5.362,0,0,1-3.813-1.585l-1.1-1.1a5.443,5.443,0,0,1-5.344,4.288Zm-2.019-3.416a2.9,2.9,0,0,0,4.045-.007,3.034,3.034,0,0,0,.061-4.13,1.3,1.3,0,0,1,1.911-1.758l4.283,4.283a2.778,2.778,0,0,0,1.975.824,3.118,3.118,0,0,0,2.072-.823,2.862,2.862,0,0,0,0-3.918,1.3,1.3,0,1,1,1.838-1.837l3.346,3.346a2.9,2.9,0,0,0,4.051,0,2.741,2.741,0,0,0,0-3.917,1.3,1.3,0,0,1,1.822-1.853l4.015,3.881.016.015a2.865,2.865,0,0,0,4.06-4.042l-3.336-3.2-.019-.019L188.2,221.254c-.361.1-.724.2-1.089.3a35.969,35.969,0,0,1-9.082,1.7,9.747,9.747,0,0,1-4.692-1.048,3.944,3.944,0,0,1-.39-.172L161,233.967l1.3,4.562,14.35,14.35.014.015Zm-1.06-42.624a1.3,1.3,0,0,1-1-2.132l.669-.8c.025-.031.052-.059.08-.087l.4-.4a1.3,1.3,0,0,1,1.775-.059l1.071.937a1.3,1.3,0,0,1-.642,2.26c-.427.071-.816.108-1.16.141a9.367,9.367,0,0,0-.941.119,1.3,1.3,0,0,1-.256.025Z" transform="translate(-53.684 -157.827)" fill="#BC9C6F"/>
    <path id="Path_97" data-name="Path 97" d="M105.187,177.444a1.3,1.3,0,0,1-.919-.381L93.962,166.759a1.3,1.3,0,0,1,0-1.835L117.649,141.1a1.3,1.3,0,0,1,.92-.383h0a1.3,1.3,0,0,1,.919.381L129.795,151.4a1.3,1.3,0,0,1,.022,1.815l-2.677,2.811a1.3,1.3,0,0,1-.8.4c-4.74.526-6.8,1.961-7.13,3.028a1.651,1.651,0,0,0,.735,1.65,1.3,1.3,0,0,1,.082,1.9L106.11,177.059a1.3,1.3,0,0,1-.92.385h0Zm-8.47-11.608,8.465,8.466,12.133-12.249a3.794,3.794,0,0,1-.588-3.362c.441-1.441,2.181-3.948,8.854-4.794l1.479-1.553-8.487-8.487Z" transform="translate(0 -99.577)" fill="#BC9C6F"/>
    <path id="Path_98" data-name="Path 98" d="M270.757,226.9a1.3,1.3,0,0,1-.919-.381l-22.891-22.891c-.361.1-.724.2-1.089.3a35.969,35.969,0,0,1-9.082,1.7,9.7,9.7,0,0,1-4.78-1.1c-2.214-1.18-3.324-3.087-2.9-4.981.694-3.089,5.028-5.041,11.888-5.357h.025c1.369-.037,2.463-.875,3.729-1.847,1.648-1.264,3.518-2.7,6.406-2.7a12.147,12.147,0,0,1,5.127,1.3l1.154-.621a1.3,1.3,0,0,1,1.535.225l21.413,21.413a1.3,1.3,0,0,1,.338,1.249l-1.472,5.621a1.3,1.3,0,0,1-.347.6l-7.227,7.093a1.293,1.293,0,0,1-.909.372Zm-23.421-26.02a1.3,1.3,0,0,1,.919.381l22.511,22.511,6.052-5.94,1.192-4.553-20.2-20.2-.888.479a1.3,1.3,0,0,1-1.2.015,10.3,10.3,0,0,0-4.568-1.323c-2.008,0-3.376,1.049-4.825,2.16-1.486,1.139-3.023,2.317-5.227,2.382-6.949.322-9.217,2.244-9.461,3.33-.189.839.7,1.646,1.591,2.12l.018.01a7.18,7.18,0,0,0,3.534.778,34.2,34.2,0,0,0,8.394-1.6c.618-.17,1.231-.338,1.835-.5a1.218,1.218,0,0,1,.33-.044Z" transform="translate(-112.439 -140.198)" fill="#BC9C6F"/>
    <path id="Path_99" data-name="Path 99" d="M415.823,167.06a1.3,1.3,0,0,1-.919-.381L391.215,142.99a1.3,1.3,0,0,1,0-1.838l10.305-10.305a1.3,1.3,0,0,1,1.838,0l23.689,23.689a1.3,1.3,0,0,1,0,1.838l-10.305,10.305a1.3,1.3,0,0,1-.919.381Zm-21.851-24.988,21.851,21.851,8.467-8.467L402.44,133.605Z" transform="translate(-246.797 -91.067)" fill="#BC9C6F"/>
    <path id="Path_100" data-name="Path 100" d="M336.483,28.311a1.3,1.3,0,0,1-1.3-1.3v-4.93a1.3,1.3,0,0,1,2.6,0v4.93A1.3,1.3,0,0,1,336.483,28.311Z" transform="translate(-200.592)" fill="#BC9C6F"/>
    <path id="Path_101" data-name="Path 101" d="M421.087,89.012a1.3,1.3,0,0,1-.656-2.423l4.287-2.5a1.3,1.3,0,1,1,1.31,2.245l-4.287,2.5a1.291,1.291,0,0,1-.654.178Z" transform="translate(-270.834 -52.414)" fill="#BC9C6F"/>
    <path id="Path_102" data-name="Path 102" d="M230.909,89.017a1.3,1.3,0,0,1-.654-.177l-4.287-2.5a1.3,1.3,0,0,1,1.309-2.245l4.287,2.5a1.3,1.3,0,0,1-.655,2.422Z" transform="translate(-109.38 -52.419)" fill="#BC9C6F"/>
    <path id="Path_103" data-name="Path 103" d="M382.778,56.677a1.3,1.3,0,0,1-1.121-1.955l1.5-2.572a1.3,1.3,0,1,1,2.244,1.31l-1.5,2.572a1.3,1.3,0,0,1-1.123.644Z" transform="translate(-239.029 -25.509)" fill="#BC9C6F"/>
    <path id="Path_104" data-name="Path 104" d="M282.417,56.675a1.3,1.3,0,0,1-1.124-.645l-1.5-2.572a1.3,1.3,0,1,1,2.245-1.31l1.5,2.572a1.3,1.3,0,0,1-1.121,1.955Z" transform="translate(-154.456 -25.507)" fill="#BC9C6F"/>
    <path id="Path_105" data-name="Path 105" d="M103,127.385a4.084,4.084,0,1,1,4.084-4.084A4.089,4.089,0,0,1,103,127.385Zm0-5.57a1.485,1.485,0,1,0,1.485,1.485A1.487,1.487,0,0,0,103,121.815Z" transform="translate(-4.43 -81.726)" fill="#BC9C6F"/>
    <path id="Path_106" data-name="Path 106" d="M530.492,85.493a5.013,5.013,0,1,1,5.013-5.013A5.018,5.018,0,0,1,530.492,85.493Zm0-7.426a2.414,2.414,0,1,0,2.414,2.414A2.416,2.416,0,0,0,530.492,78.067Z" transform="translate(-358.587 -45.404)" fill="#BC9C6F"/>
    <path id="Path_107" data-name="Path 107" d="M544.621,272.228a1.857,1.857,0,1,1,2.626,0A1.857,1.857,0,0,1,544.621,272.228Z" transform="translate(-374.029 -206.135)" fill="#BC9C6F"/>
    <path id="Path_108" data-name="Path 108" d="M139.931,283.168a1.857,1.857,0,1,1,2.626,0A1.857,1.857,0,0,1,139.931,283.168Z" transform="translate(-38.031 -215.218)" fill="#BC9C6F"/>
  </g>
</svg>
